# xmcd
#
# Track frame offsets:
#	150
#	18505
#	35067
#	49692
#	74835
#	89795
#	111170
#	133742
#	149270
#	165717
#	187060
#	204340
#	225622
#	241227
#	271010
#	296385
#
# Disc length: 4387 seconds
#
# Revision: 5
# Processed by: cddbd v1.4PL0 Copyright (c) Steve Scherf et al.
# Submitted via: EasyCDDAExtractor 6.0.0.1
#
DISCID=f2112110
DTITLE=Various Artist - Doin' The Do-Best Of Betty Boo
DYEAR=1999
DGENRE=Pop
TTITLE0=Betty Boo - Where Are You Baby?(Doin' The Do-Best Of Betty Boo Swedish
TTITLE0=CD Version)
TTITLE1=Betty Boo - Doin' The Do(Doin' The Do-Best Of Betty Boo Swedish CD Ver
TTITLE1=sion)
TTITLE2=Betty Boo And The Beatmasters - Hey DJ(I Can't Dance To That Music You
TTITLE2=r Playing)(Doin' The Do-Best Of Betty Boo Swedish CD Version)
TTITLE3=Betty Boo - 24 Hours(Norman Cook Remix)
TTITLE4=Betty Boo - Boo's Boogie(Doin' The Do-Best Of Betty Boo Swedish CD Ver
TTITLE4=sion)
TTITLE5=Betty Boo - Leave Me Alone(Doin' The Do-Best Of Betty Boo Swedish CD V
TTITLE5=ersion)
TTITLE6=Betty Boo - Shame(Doin' The Do-Best Of Betty Boo Swedish CD Version)
TTITLE7=Betty Boo - Boo Is Booming(Doin' The Do-Best Of Betty Boo Swedish CD V
TTITLE7=ersion)
TTITLE8=Betty Boo - Mumbo Jumbo(Doin' The Do-Best Of Betty Boo Swedish CD Vers
TTITLE8=ion)
TTITLE9=Betty Boo - Doin' It To Def(Doin' The Do-Best Of Betty Boo Swedish CD 
TTITLE9=Version)
TTITLE10=Betty Boo - Don't Know What To Do(Doin' The Do-Best Of Betty Boo Swed
TTITLE10=ish CD Version)
TTITLE11=Betty Boo - Valentine's Day(Doin' The Do-Best Of Betty Boo Swedish CD
TTITLE11=Version)
TTITLE12=Betty Boo - 24 Hours(Doin' The Do-Best Of Betty Boo Swedish CD Versio
TTITLE12=n)
TTITLE13=Betty Boo - Where Are You Baby(12 Inch Peter Lorimer Version)
TTITLE14=Betty Boo - Doin' The Do(12 Inch Version)(Doin' The Do-Best Of Betty 
TTITLE14=Boo Swedish CD Version)
TTITLE15=Betty Boo - Boo's Megamix(Doin' The Do-Best Of Betty Boo Swedish CD V
TTITLE15=ersion)
EXTD=YEAR: 1999
EXTT0=
EXTT1=
EXTT2=
EXTT3=
EXTT4=
EXTT5=
EXTT6=
EXTT7=
EXTT8=
EXTT9=
EXTT10=
EXTT11=
EXTT12=
EXTT13=
EXTT14=
EXTT15=
PLAYORDER=
